<?xml version="1.0" encoding="utf-8"?>
<svg width="62px" height="62px" viewBox="0 0 62 62" version="1.1" xmlns:xlink="http://www.w3.org/1999/xlink" xmlns="http://www.w3.org/2000/svg">
  <defs>
    <linearGradient x1="0" y1="0" x2="1" y2="1" id="gradient_1">
      <stop offset="0" stop-color="#0DFD10" />
      <stop offset="1" stop-color="#00E4EC" />
    </linearGradient>
  </defs>
  <path d="M496.999 384L543.001 384Q543.197 384 543.393 384.01Q543.59 384.019 543.785 384.039Q543.98 384.058 544.175 384.087Q544.369 384.115 544.561 384.154Q544.754 384.192 544.945 384.24Q545.135 384.287 545.323 384.344Q545.511 384.401 545.696 384.468Q545.881 384.534 546.062 384.609Q546.243 384.684 546.421 384.768Q546.598 384.852 546.772 384.944Q546.945 385.037 547.113 385.138Q547.282 385.239 547.445 385.348Q547.608 385.457 547.766 385.574Q547.924 385.691 548.075 385.816Q548.227 385.94 548.373 386.072Q548.518 386.204 548.657 386.343Q548.796 386.482 548.928 386.627Q549.06 386.773 549.184 386.924Q549.309 387.076 549.426 387.234Q549.543 387.392 549.652 387.555Q549.761 387.718 549.862 387.887Q549.963 388.055 550.055 388.228Q550.148 388.401 550.232 388.579Q550.316 388.756 550.391 388.938Q550.466 389.119 550.532 389.304Q550.599 389.489 550.656 389.677Q550.713 389.865 550.76 390.055Q550.808 390.246 550.846 390.438Q550.885 390.631 550.913 390.825Q550.942 391.02 550.961 391.215Q550.981 391.41 550.99 391.607Q551 391.803 551 391.999L551 438.001Q551 438.197 550.99 438.393Q550.981 438.59 550.961 438.785Q550.942 438.98 550.913 439.175Q550.885 439.369 550.846 439.561Q550.808 439.754 550.76 439.945Q550.713 440.135 550.656 440.323Q550.599 440.511 550.532 440.696Q550.466 440.881 550.391 441.062Q550.316 441.243 550.232 441.421Q550.148 441.598 550.055 441.772Q549.963 441.945 549.862 442.113Q549.761 442.282 549.652 442.445Q549.543 442.608 549.426 442.766Q549.309 442.924 549.184 443.076Q549.06 443.227 548.928 443.373Q548.796 443.518 548.657 443.657Q548.518 443.796 548.373 443.928Q548.227 444.06 548.075 444.184Q547.924 444.309 547.766 444.426Q547.608 444.543 547.445 444.652Q547.282 444.761 547.113 444.862Q546.945 444.963 546.772 445.055Q546.598 445.148 546.421 445.232Q546.243 445.316 546.062 445.391Q545.881 445.466 545.696 445.532Q545.511 445.599 545.323 445.656Q545.135 445.713 544.945 445.76Q544.754 445.808 544.561 445.846Q544.369 445.885 544.175 445.913Q543.98 445.942 543.785 445.961Q543.59 445.981 543.393 445.99Q543.197 446 543.001 446L496.999 446Q496.803 446 496.606 445.99Q496.41 445.981 496.215 445.961Q496.02 445.942 495.825 445.913Q495.631 445.885 495.438 445.846Q495.246 445.808 495.055 445.76Q494.865 445.713 494.677 445.656Q494.489 445.599 494.304 445.532Q494.119 445.466 493.938 445.391Q493.756 445.316 493.579 445.232Q493.401 445.148 493.228 445.055Q493.055 444.963 492.887 444.862Q492.718 444.761 492.555 444.652Q492.392 444.543 492.234 444.426Q492.076 444.309 491.925 444.184Q491.773 444.06 491.627 443.928Q491.482 443.796 491.343 443.657Q491.204 443.518 491.072 443.373Q490.94 443.227 490.816 443.076Q490.691 442.924 490.574 442.766Q490.457 442.608 490.348 442.445Q490.239 442.282 490.138 442.113Q490.037 441.945 489.944 441.772Q489.852 441.598 489.768 441.421Q489.684 441.243 489.609 441.062Q489.534 440.881 489.468 440.696Q489.401 440.511 489.344 440.323Q489.287 440.135 489.24 439.945Q489.192 439.754 489.154 439.561Q489.115 439.369 489.087 439.175Q489.058 438.98 489.039 438.785Q489.019 438.59 489.01 438.393Q489 438.197 489 438.001L489 391.999Q489 391.803 489.01 391.606Q489.019 391.41 489.039 391.215Q489.058 391.019 489.087 390.825Q489.115 390.631 489.154 390.438Q489.192 390.246 489.24 390.055Q489.287 389.865 489.344 389.677Q489.401 389.489 489.467 389.304Q489.534 389.119 489.609 388.938Q489.684 388.756 489.768 388.579Q489.852 388.401 489.944 388.228Q490.037 388.055 490.138 387.887Q490.239 387.718 490.348 387.555Q490.457 387.392 490.574 387.234Q490.691 387.076 490.816 386.924Q490.94 386.773 491.072 386.627Q491.204 386.482 491.343 386.343Q491.482 386.204 491.627 386.072Q491.773 385.94 491.924 385.816Q492.076 385.691 492.234 385.574Q492.392 385.457 492.555 385.348Q492.718 385.239 492.887 385.138Q493.055 385.037 493.228 384.944Q493.401 384.852 493.579 384.768Q493.756 384.684 493.938 384.609Q494.119 384.534 494.304 384.468Q494.489 384.401 494.677 384.344Q494.865 384.287 495.055 384.24Q495.246 384.192 495.438 384.154Q495.631 384.115 495.825 384.087Q496.02 384.058 496.215 384.039Q496.41 384.019 496.607 384.01Q496.803 384 496.999 384Z" id="Rectangle" fill="url(#gradient_1)" fill-rule="evenodd" stroke="none" />
  <path d="M520 393.185L538.892 404.093L538.892 425.907L520 436.815L501.108 425.907L501.108 404.093L520 393.185Z" id="Polygon" fill="none" fill-rule="evenodd" stroke="#FFFFFF" stroke-width="2" />
  <path d="M504.005 417.011C504.005 417.011 512.159 416.882 516.924 423.682C518.618 421.799 523.595 412.011 523.913 408.327C523.913 412.692 526.349 417.094 527.619 417.011C528.89 416.927 532.067 418.259 534.926 415.952" id="New-shape" fill="none" fill-rule="evenodd" stroke="#FFFFFF" stroke-width="2" />
</svg>