<?xml version="1.0" encoding="utf-8"?>
<svg width="33px" height="33px" viewBox="0 0 33 33" version="1.1" xmlns:xlink="http://www.w3.org/1999/xlink" xmlns="http://www.w3.org/2000/svg">
  <defs>
    <path d="M0 0L33 0L33 33L0 33L0 0Z" id="path_1" />
    <clipPath id="mask_1">
      <use xlink:href="#path_1" />
    </clipPath>
  </defs>
  <g id="Search-icon">
    <path d="M0 0L33 0L33 33L0 33L0 0Z" id="Background" fill="none" fill-rule="evenodd" stroke="none" />
    <g clip-path="url(#mask_1)">
      <path d="M13.86 1.98001C7.65705 1.98001 2.64001 6.99704 2.64001 13.2C2.64001 19.403 7.65705 24.42 13.86 24.42C16.0746 24.42 18.1242 23.7703 19.8619 22.6669L27.9675 30.7725L30.7725 27.9675L22.77 19.9856C24.2086 18.0984 25.08 15.7601 25.08 13.2C25.08 6.99704 20.063 1.98001 13.86 1.98001L13.86 1.98001ZM13.86 4.62003C18.6115 4.62003 22.44 8.44854 22.44 13.2C22.44 17.9515 18.6115 21.78 13.86 21.78C9.10855 21.78 5.28003 17.9515 5.28003 13.2C5.28003 8.44854 9.10855 4.62003 13.86 4.62003L13.86 4.62003Z" id="Shape" fill="#686868" fill-rule="evenodd" stroke="none" />
    </g>
  </g>
</svg>