<?xml version="1.0" encoding="utf-8"?>
<svg width="74px" height="74px" viewBox="0 0 74 74" version="1.1" xmlns:xlink="http://www.w3.org/1999/xlink" xmlns="http://www.w3.org/2000/svg">
  <defs>
    <path d="M0 0L74 0L74 74L0 74L0 0Z" id="path_1" />
    <clipPath id="mask_1">
      <use xlink:href="#path_1" />
    </clipPath>
  </defs>
  <g id="Telegram-App-icon">
    <path d="M0 0L74 0L74 74L0 74L0 0Z" id="Background" fill="none" fill-rule="evenodd" stroke="none" />
    <g clip-path="url(#mask_1)">
      <path d="M37 6.16666C19.9712 6.16666 6.1667 19.9712 6.16666 36.9999C6.16661 54.0287 19.9711 67.8332 36.9998 67.8333C54.0286 67.8334 67.8331 54.0289 67.8332 37.0001C67.8333 19.9714 54.0289 6.16679 37.0002 6.16666L37 6.16666Z" id="Shape" fill="#29B6F6" fill-rule="evenodd" stroke="none" />
      <path d="M52.3396 23.125L46.5645 52.6109C46.5645 52.6109 46.3163 53.9583 44.6451 53.9583C43.7571 53.9583 43.2992 53.5359 43.2992 53.5359L30.7902 43.1559L24.6697 40.071L16.8149 37.9821C16.8149 37.9821 15.4167 37.5781 15.4167 36.4219C15.4167 35.4584 16.855 34.9989 16.855 34.9989L49.7172 21.9441C49.7157 21.9426 50.7208 21.5818 51.4531 21.5833C51.9033 21.5833 52.4167 21.7761 52.4167 22.3542C52.4167 22.7396 52.3396 23.125 52.3396 23.125L52.3396 23.125Z" id="Shape" fill="#FFFFFF" fill-rule="evenodd" stroke="none" />
      <path d="M35.4583 47.0285L30.1766 52.2301C30.1766 52.2301 29.9468 52.4074 29.6401 52.4151C29.5337 52.4182 29.4196 52.4012 29.3024 52.3488L30.7886 43.1528L35.4583 47.0285L35.4583 47.0285Z" id="Shape" fill="#B0BEC5" fill-rule="evenodd" stroke="none" />
      <path d="M46.0912 28.0522C45.8307 27.713 45.3497 27.6514 45.0105 27.9088L24.6667 40.0834C24.6667 40.0834 27.9134 49.1669 28.4083 50.7393C28.9047 52.3134 29.3024 52.3504 29.3024 52.3504L30.7886 43.1543L45.9463 29.1313C46.2854 28.8739 46.3487 28.3914 46.0912 28.0522L46.0912 28.0522Z" id="Shape" fill="#CFD8DC" fill-rule="evenodd" stroke="none" />
    </g>
  </g>
</svg>